# xmcd
#
# Track frame offsets: 
#        150
#        9757
#        24331
#        43748
#        60900
#        73291
#        89675
#        106729
#        118890
#        131758
#        142054
#        158902
#        182625
#        201867
#        219760
#        238626
#        247747
#        269525
#
# Disc length: 3810 seconds
#
# Revision: 0
# Processed by: cddbd v1.5.1PL0 Copyright (c) Steve Scherf et al.
# Submitted via: ExactAudioCopy v0.95a5
#
DISCID=fb0ee012
DTITLE=Don Scott - Highway 52
DYEAR=1900
DGENRE=Blues
TTITLE0=Lazy Walk
TTITLE1=I Can't Hold Out
TTITLE2=Nobody Knows You When You're Down and Out
TTITLE3=How Long
TTITLE4=Don't You Lie to Me
TTITLE5=Jelly Roll Baker
TTITLE6=Everybody Cryin Mercy
TTITLE7=Phone Bills Blues
TTITLE8=Eight Days of Hell
TTITLE9=Fine New Woman
TTITLE10=Black Jack Blues
TTITLE11=Colc Colc Feelin
TTITLE12=Got a Mind to Give Up Living
TTITLE13=No Place to Go
TTITLE14=Trouble in Mind
TTITLE15=Slidin' Sideways
TTITLE16=Lonesome Train
TTITLE17=Highway 52
EXTD=
EXTT0=
EXTT1=
EXTT2=
EXTT3=
EXTT4=
EXTT5=
EXTT6=
EXTT7=
EXTT8=
EXTT9=
EXTT10=
EXTT11=
EXTT12=
EXTT13=
EXTT14=
EXTT15=
EXTT16=
EXTT17=
PLAYORDER=
